<?xml version="1.0"?>
<svg version="1.1" xmlns="http://www.w3.org/2000/svg" width="260" height="60" style=""><path fill="#3e0bd6" d="M22.95,26.85l3.15,0c3.9,0,6.6,1.65,6.6,5.19c0,2.61-1.23,4.2-3.6,4.95c2.82,0.81,4.29,2.49,4.29,4.8c0,4.41-2.94,6.21-7.8,6.21l-9.54,0l0-2.55l2.25-0.9l0-14.1l-2.25-0.9l0-2.55z M22.95,35.49l1.74,0c2.19,0,3.36-0.93,3.36-2.79c0-1.56-1.11-2.25-2.55-2.25l-2.55,0l0,5.04z M22.95,44.4l2.49,0c2.1,0,3.21-0.96,3.21-2.61c0-2.19-1.26-3.15-3.96-3.15l-1.74,0l0,5.76z M44.3553,44.85l2.7,0.75l0,2.4l-9.63,0l0-2.4l2.4-0.75l0-16.86l-2.4-0.6l0-2.4l6.93-0.24l0,20.1z M49.7406,34.35l0-2.4l6.9-0.15l0,10.35c0,1.65,0.48,2.4,1.83,2.4c1.95,0,3.39-1.62,3.39-1.62l0-7.83l-2.4-0.75l0-2.4l6.9-0.15l0,13.05l2.4,0.6l0,2.34l-6.33,0.21l-0.3-2.1s-2.4,2.4-5.25,2.4c-3,0-4.74-2.01-4.74-5.37l0-7.83z M87.1359,40.89l-9.96,0c0.18,2.4,1.56,3.81,3.63,3.81c2.49,0,5.04-1.41,5.04-1.41l1.29,2.49s-3,2.52-6.84,2.52c-5.16,0-7.8-3-7.8-8.1c0-5.25,2.97-8.7,8.01-8.7c4.47,0,6.81,2.76,6.81,7.05c0,1.14-0.18,2.25-0.18,2.34z M77.2359,38.1l5.43,0c0-1.71-0.72-3-2.46-3c-1.68,0-2.73,1.23-2.97,3z M97.3512,24.75l0,8.34c0.51-0.39,2.01-1.59,4.29-1.59c4.02,0,6.15,2.91,6.15,7.95c0,5.64-2.94,8.91-8.7,8.91c-3.3,0-6.24-0.66-6.24-0.66l0-19.71l-2.25-0.6l0-2.4z M97.3512,36.45l0,8.07s0.69,0.24,2.22,0.24c2.61,0,3.57-1.98,3.57-5.01c0-3-0.84-4.65-2.94-4.65c-1.8,0-2.85,1.35-2.85,1.35z M126.7665,40.89l-9.96,0c0.18,2.4,1.56,3.81,3.63,3.81c2.49,0,5.04-1.41,5.04-1.41l1.29,2.49s-3,2.52-6.84,2.52c-5.16,0-7.8-3-7.8-8.1c0-5.25,2.97-8.7,8.01-8.7c4.47,0,6.81,2.76,6.81,7.05c0,1.14-0.18,2.25-0.18,2.34z M116.8665,38.1l5.43,0c0-1.71-0.72-3-2.46-3c-1.68,0-2.73,1.23-2.97,3z M137.4318,31.8l0.27,2.07s2.16-2.37,4.17-2.37c1.65,0,2.79,0.54,2.79,0.54l-0.24,5.76l-2.7,0l-0.45-2.55c-1.74,0-3.24,1.68-3.24,1.68l0,7.92l3,0.75l0,2.4l-9.9,0l0-2.4l2.4-0.75l0-9.75l-2.4-0.75l0-2.4z M154.2471,31.8l0.27,2.07s2.16-2.37,4.17-2.37c1.65,0,2.79,0.54,2.79,0.54l-0.24,5.76l-2.7,0l-0.45-2.55c-1.74,0-3.24,1.68-3.24,1.68l0,7.92l3,0.75l0,2.4l-9.9,0l0-2.4l2.4-0.75l0-9.75l-2.4-0.75l0-2.4z M163.8624,34.35l0-2.4l8.01-0.15l0,2.55l-1.68,0.3l2.67,8.4l2.55-8.31l-1.74-0.39l0-2.4l8.07-0.15l0,2.55l-1.86,0.39l-4.41,12.3c-1.44,3.96-3.39,8.16-8.16,8.16c-1.02,0-2.91-0.24-2.91-0.24l0.42-3.21l1.95,0c2.4,0,3.51-2.55,4.02-3.72l-5.34-13.2z"/><path fill="#ffd11a" d="M204.4877,33.6l-0.69-2.88s-1.41-0.48-3.36-0.48c-3.15,0-4.95,2.34-4.95,7.35c0,4.86,1.95,6.9,5.1,6.9c3,0,5.7-2.1,5.7-2.1l1.65,2.7s-3.15,3.27-7.86,3.27c-6.09,0-9.6-3.66-9.6-10.62c0-7.05,3.96-11.25,10.11-11.25c3.63,0,6.99,1.41,6.99,1.41l-0.15,5.7l-2.94,0z M222.203,48l-0.54-1.95s-2.31,2.25-4.86,2.25c-2.91,0-4.68-1.71-4.68-4.71c0-3.54,2.67-4.95,7.23-4.95l2.1,0l0-1.65c0-1.53-0.81-2.19-2.31-2.19c-1.53,0-2.64,0.45-2.64,0.45l-0.45,1.89l-2.7,0l-0.21-4.44s3.63-1.2,6.51-1.2c4.56,0,6.3,1.59,6.3,5.94l0,7.41l2.25,0.54l0,2.4z M221.453,41.19l-1.71,0c-2.34,0-3.27,0.6-3.27,1.95c0,1.14,0.63,1.8,1.77,1.8c1.59,0,3.21-1.74,3.21-1.74l0-2.01z M242.7383,44.16l1.08,2.28c-1.47,1.08-3.15,1.86-5.1,1.86c-3.45,0-4.44-2.4-4.44-5.85l0-6.9l-2.79,0l0-2.91l2.79-0.39l0-4.14l4.5-0.81l0,4.95l4.2,0l0,3.3l-4.2,0l0,6.6c0,1.92,0.33,2.7,1.59,2.7c0.81,0,1.98-0.48,2.37-0.69z"/></svg>
